<?xml version="1.0" encoding="utf-8"?>
<!-- Generator: Adobe Illustrator 25.2.0, SVG Export Plug-In . SVG Version: 6.00 Build 0)  -->
<svg version="1.1" id="Layer_1" xmlns="http://www.w3.org/2000/svg" xmlns:xlink="http://www.w3.org/1999/xlink" x="0px" y="0px"
	 width="225px" height="65px" viewBox="0 0 225 65" style="enable-background:new 0 0 225 65;" xml:space="preserve">
<style type="text/css">
	.st0{fill-rule:evenodd;clip-rule:evenodd;fill:#FFFFFF;}
</style>
<g id="fw_logo_main_copy">
	<path id="Shape" class="st0" d="M73,19.5L73,19.5c0.5,0,0.8,0.4,0.8,0.8v21.1c0,0.4-0.3,0.7-0.7,0.7c-0.4,0-0.7-0.3-0.7-0.7V20.2
		C72.4,19.8,72.7,19.5,73,19.5z M53.7,20.6H67c0.4,0,0.7,0.5,0.7,0.8c0,0.4-0.3,0.7-0.7,0.7H54.4v8.8h11.4c0.4,0,0.7,0.3,0.7,0.7
		s-0.3,0.7-0.7,0.7H54.5v9.1c-0.1,0.5-0.4,0.8-0.9,0.8c-0.4,0-0.8-0.4-0.8-0.8v-20h0.1C52.9,20.9,53.2,20.6,53.7,20.6z M92.4,27.1
		c0-0.5-0.4-0.7-0.7-0.7c-0.4,0-0.7,0.4-0.7,0.7v8.8c0,3-2.4,5.4-5.3,5.3c-3.1,0-4.9-2.1-4.9-5.4v-8.7c0-0.5-0.4-0.7-0.7-0.7
		c-0.4,0-0.7,0.4-0.7,0.7v9c0,3.7,2.3,6.4,6.1,6.4c2.3,0.1,4.5-1.2,5.6-3.3v2.3c0,0.5,0.4,0.7,0.7,0.7c0.4,0,0.7-0.4,0.7-0.7h-0.1
		V27.1z M105.9,27.2c0,0.4-0.4,0.6-0.7,0.6h-4.9v10.1c0,2.3,1.2,3.1,3.1,3.1c0.6,0,1.2-0.1,1.8-0.3c0.4,0,0.6,0.3,0.6,0.6
		s-0.2,0.5-0.4,0.6c-0.7,0.3-1.5,0.4-2.2,0.4c-2.3,0-4.2-1.4-4.2-4.3V27.8h-1.7c-0.4,0-0.7-0.4-0.7-0.7s0.4-0.6,0.7-0.6H99v-4.4
		c0-0.4,0.3-0.7,0.6-0.7h0.1c0.4,0,0.7,0.4,0.7,0.7v4.4h4.9C105.5,26.5,105.9,26.8,105.9,27.2z M117.2,27.8c0.4,0,0.7-0.3,0.7-0.6
		s-0.4-0.7-0.7-0.7h-4.9v-4.4c0-0.4-0.4-0.7-0.7-0.7h-0.1c-0.4,0-0.6,0.4-0.6,0.7v4.4h-1.7c-0.4,0-0.7,0.3-0.7,0.6s0.4,0.7,0.7,0.7
		h1.7v10.3c0,2.9,1.9,4.3,4.2,4.3c0.7,0,1.5-0.1,2.2-0.4c0.3-0.1,0.4-0.4,0.4-0.6c0-0.4-0.3-0.6-0.6-0.6c-0.5,0.2-1.2,0.3-1.8,0.3
		c-1.9,0-3.1-0.8-3.1-3.1V27.8H117.2z M120.6,34.3c0-4.6,3.1-8.3,7.3-8.3c4.3,0,7.1,3.6,7.1,8.3c0,0.4-0.4,0.7-0.7,0.7h-12
		c0.3,3.9,3,6.2,6,6.2c1.9,0,3.7-0.8,5-2.2c0.1-0.1,0.3-0.2,0.4-0.2c0.4,0,0.7,0.4,0.7,0.7c0,0.2-0.1,0.4-0.3,0.5
		c-1.5,1.7-3.7,2.6-5.9,2.5C124,42.6,120.6,39.4,120.6,34.3L120.6,34.3z M122.1,33.5c0.3-3.5,2.7-6.1,5.7-6.1c3.5,0,5.3,2.9,5.5,6.1
		H122.1z M140.7,31c1-2.6,3.4-4.5,6.1-4.7c0.4,0,0.8,0.4,0.8,0.9c0,0.4-0.3,0.8-0.7,0.8h-0.1c-3.3,0.4-6.1,2.8-6.1,7.9v5.8
		c-0.1,0.5-0.4,0.7-0.8,0.7c-0.4,0-0.7-0.4-0.7-0.7V27.2c0.1-0.5,0.4-0.7,0.8-0.7c0.4,0,0.7,0.4,0.7,0.7V31z M170.9,25.5
		c-1.1,0-1.9,0.7-2.2,1.8l-2.6,8.4l-2.6-8.4c-0.3-1.1-1.2-1.9-2.4-1.9h-0.3c-1.2,0-2.1,0.7-2.4,1.9l-2.6,8.4l-2.5-8.4
		c-0.3-1-1.2-1.8-2.2-1.8H151c-1.2,0-2,1-2,2.2c0,0.4,0.1,0.7,0.2,1.1l0,0l4,11.7c0.3,1.2,1.2,2,2.5,2.1h0.2c1.2,0,2.1-0.8,2.5-2
		l2.6-8.4l2.6,8.4c0.3,1.2,1.3,2,2.5,2h0.2c1.2,0,2.3-0.8,2.6-2.1l4-11.8c0.1-0.3,0.2-0.6,0.2-0.9v-0.1
		C173,26.4,172.1,25.5,170.9,25.5z M177.1,26.3c1.7-0.5,3.4-0.9,5.1-0.8c2.5,0,4.2,0.7,5.6,1.9c1.2,1.5,1.9,3.4,1.8,5.3v7.4
		c0,1.3-1,2.3-2.2,2.3s-2.1-0.8-2.2-2c-1.2,1.4-3,2.2-4.9,2.1c-2.9,0-5.5-1.8-5.5-5.1c0-3.6,2.7-5.4,6.5-5.4c1.3,0,2.7,0.2,3.9,0.6
		v-0.3c0-2-1.2-3-3.5-3c-1.1,0-2.1,0.1-3.2,0.5c-0.2,0.1-0.4,0.1-0.6,0.1c-1.1,0.1-1.9-0.7-1.9-1.8C176,27.3,176.4,26.6,177.1,26.3z
		 M185.3,36.3c0,1.8-1.5,2.9-3.6,2.8c-1.4,0-2.5-0.7-2.5-2V37c0-1.4,1.2-2.3,3.2-2.3c1,0,2,0.3,2.9,0.6L185.3,36.3L185.3,36.3z
		 M203.2,27c0.3-1,1.2-1.6,2.1-1.6c1.2,0,2.2,1,2.2,2.2v0.1c0,0.4-0.1,0.7-0.3,1.1l-4.8,11.7c-0.4,1.2-1.5,1.9-2.7,2h-0.3
		c-1.2-0.1-2.2-0.9-2.6-2.1l-5-11.7c-0.2-0.4-0.3-0.7-0.3-1.1c0.1-1.3,1.1-2.2,2.2-2.2c1.1,0,1.9,0.7,2.2,1.7l3.5,9.5L203.2,27z
		 M217.3,25.3c-4.7,0-8,3.9-8,8.6v0.7c0.2,4.5,4,8.1,8.4,7.8c2,0,4-0.6,5.6-2c0.4-0.4,0.6-0.8,0.6-1.4l0,0c0-1-0.8-1.8-1.8-1.8
		c-0.4,0-0.8,0.1-1.1,0.4c-1,0.7-2.1,1.2-3.3,1.1c-1.9,0.1-3.6-1.3-3.9-3.3h9.1c1.2-0.1,2-1.1,1.9-2.3v-0.4
		C225,28.6,221.5,25.2,217.3,25.3z M217.3,29.1c-1.9,0-3.1,1.4-3.5,3.5h6.8C220.4,30.5,219.2,29.1,217.3,29.1z"/>
	<path id="Shape_2" class="st0" d="M32.2,11.1c20-2.9,7.2,13.5,1,18.1c4.3,3.2,8.6,7.6,10.5,12.6c3.5,9.2-5.1,10.6-11.5,8.3
		c-7-2.4-13.3-7.5-17.4-13.5c-1.2,0-2.4-0.2-3.6-0.5c2.3,6.3,3.3,12.8,2.7,18c0-10.6-5.3-21.2-12.8-30c-2.7-3.1,0.1-5.4,2.5-2.4
		C5.2,24,6.7,26.3,8,28.6C10.6,19.9,23.4,12.3,32.2,11.1z M29.3,26.8c3.9-2.3,15.8-14.6,4.7-13.5c-6.4,0.7-14.2,6.4-17.4,10
		C21.1,22.8,25.7,24.7,29.3,26.8z M16.6,26c3-0.3,6.3,1.3,8.8,2.8c-2.4,1.1-5.1,1.8-7.8,2C13.5,30.8,12.7,26.4,16.6,26z M18.3,36.3
		c3.6,3.8,8.5,7.6,13.7,8.9c3,0.8,6.4,0.4,5.2-3.7c-1.2-3.8-4.5-7.2-7.6-9.8c-0.9,0.6-1.9,1.2-2.8,1.6
		C24.1,34.8,21.2,35.8,18.3,36.3z"/>
</g>
</svg>
