<?xml version="1.0" encoding="utf-8"?>
<!-- Generator: Adobe Illustrator 26.3.1, SVG Export Plug-In . SVG Version: 6.00 Build 0)  -->
<svg version="1.1" id="Layer_1" xmlns="http://www.w3.org/2000/svg" xmlns:xlink="http://www.w3.org/1999/xlink" x="0px" y="0px"
	 width="101.3px" height="20px" viewBox="0 0 101.3 20" style="enable-background:new 0 0 101.3 20;" xml:space="preserve">
<style type="text/css">
	.st0{display:none;}
	.st1{display:inline;}
	.st2{clip-path:url(#SVGID_00000054957883092478499480000010574473791841528476_);fill:#AAAAAB;}
	.st3{clip-path:url(#SVGID_00000176729862860773694800000009546610965949991831_);fill:#FFFFFF;}
	.st4{clip-path:url(#SVGID_00000047741513878933888300000014863761601468318884_);fill:#AAAAAB;}
	.st5{clip-path:url(#SVGID_00000093146168687152304090000008473159168309410441_);fill:#AAAAAB;}
	.st6{clip-path:url(#SVGID_00000035526883148822424850000017513255765958252979_);fill:#AAAAAB;}
	.st7{clip-path:url(#SVGID_00000155864914999353118830000013020050436902953346_);fill:#AAAAAB;}
	.st8{clip-path:url(#SVGID_00000116943253042900746520000003488750842863955608_);fill:#AAAAAB;}
	.st9{clip-path:url(#SVGID_00000054263935454090812790000014999740643322547359_);fill:#AAAAAB;}
	.st10{fill-rule:evenodd;clip-rule:evenodd;fill:#FFFFFF;}
	.st11{fill-rule:evenodd;clip-rule:evenodd;fill:#F4A621;}
</style>
<g id="Layer_1_00000180332394630081829950000013431754078870624660_" class="st0">
	<g id="Layer_1_1_" class="st1">
		<g>
			<g>
				<g>
					<g>
						<defs>
							<rect id="SVGID_1_" y="0.4" width="55.7" height="19.2"/>
						</defs>
						<clipPath id="SVGID_00000013169523338457782250000003648739035047118723_">
							<use xlink:href="#SVGID_1_"  style="overflow:visible;"/>
						</clipPath>
						<path style="clip-path:url(#SVGID_00000013169523338457782250000003648739035047118723_);fill:#AAAAAB;" d="M9.6,0.4
							c5.3,0,9.6,4.3,9.6,9.6s-4.3,9.6-9.6,9.6S0,15.3,0,10S4.3,0.4,9.6,0.4"/>
					</g>
				</g>
			</g>
			<g>
				<g>
					<g>
						<defs>
							<rect id="SVGID_00000147908534597490232750000015216980777755131308_" y="0.4" width="55.7" height="19.2"/>
						</defs>
						<clipPath id="SVGID_00000078033056488634446770000011179289484063518864_">
							<use xlink:href="#SVGID_00000147908534597490232750000015216980777755131308_"  style="overflow:visible;"/>
						</clipPath>
						<path style="clip-path:url(#SVGID_00000078033056488634446770000011179289484063518864_);fill:#FFFFFF;" d="M9.6,14.1
							C7.5,9.2,5.9,4.7,5.9,4.7H2.6c0,0,2,5.8,5.7,13.2h2.6c3.7-7.3,5.7-13.2,5.7-13.2h-3.3C13.3,4.7,11.8,9.2,9.6,14.1"/>
					</g>
				</g>
			</g>
			<g>
				<g>
					<g>
						<defs>
							<rect id="SVGID_00000112597308860125398160000003151441243328853167_" y="0.4" width="55.7" height="19.2"/>
						</defs>
						<clipPath id="SVGID_00000103245759400180686890000003266861959977821089_">
							<use xlink:href="#SVGID_00000112597308860125398160000003151441243328853167_"  style="overflow:visible;"/>
						</clipPath>
						<path style="clip-path:url(#SVGID_00000103245759400180686890000003266861959977821089_);fill:#AAAAAB;" d="M55.6,13.5h-6.4
							c0,0,0.1,2.2,3,2.2c1.4,0,2.9-0.4,2.9-0.4l0.3,2.3c0,0-1.4,0.6-3.4,0.6c-2.9,0-5.4-1.4-5.4-5.5c0-3.2,2-5.2,4.9-5.2
							C55.6,7.4,55.9,11.8,55.6,13.5 M51.2,9.5c-1.9,0-2,2-2,2h4C53.2,11.5,53,9.5,51.2,9.5"/>
					</g>
				</g>
			</g>
			<g>
				<g>
					<g>
						<defs>
							<rect id="SVGID_00000070806292102933141570000018314350879862406825_" y="0.4" width="55.7" height="19.2"/>
						</defs>
						<clipPath id="SVGID_00000040553643321159462800000011214388766163135887_">
							<use xlink:href="#SVGID_00000070806292102933141570000018314350879862406825_"  style="overflow:visible;"/>
						</clipPath>
						<path style="clip-path:url(#SVGID_00000040553643321159462800000011214388766163135887_);fill:#AAAAAB;" d="M33.4,10.1
							l0.4-2.3c0,0-3.3-1-6,0.9v9.2h2.9v-7.4C31.8,9.5,33.4,10.1,33.4,10.1"/>
					</g>
				</g>
			</g>
			<g>
				<g>
					<g>
						<defs>
							<rect id="SVGID_00000150814923952851132370000010352552921205494445_" y="0.4" width="55.7" height="19.2"/>
						</defs>
						<clipPath id="SVGID_00000129196448836717243590000002107148392760953986_">
							<use xlink:href="#SVGID_00000150814923952851132370000010352552921205494445_"  style="overflow:visible;"/>
						</clipPath>
						<path style="clip-path:url(#SVGID_00000129196448836717243590000002107148392760953986_);fill:#AAAAAB;" d="M25.6,13.5h-6.4
							c0,0,0.1,2.2,3,2.2c1.4,0,2.9-0.4,2.9-0.4l0.3,2.3c0,0-1.4,0.6-3.4,0.6c-2.9,0-5.4-1.4-5.4-5.5c0-3.2,2-5.2,4.9-5.2
							C25.6,7.4,25.9,11.8,25.6,13.5 M21.2,9.5c-1.9,0-2,2-2,2h4C23.2,11.5,23,9.5,21.2,9.5"/>
					</g>
				</g>
			</g>
			<g>
				<g>
					<g>
						<defs>
							<rect id="SVGID_00000007424971358801168270000005561718500180051101_" y="0.4" width="55.7" height="19.2"/>
						</defs>
						<clipPath id="SVGID_00000072273298085553628030000011082833107883073170_">
							<use xlink:href="#SVGID_00000007424971358801168270000005561718500180051101_"  style="overflow:visible;"/>
						</clipPath>
						<path style="clip-path:url(#SVGID_00000072273298085553628030000011082833107883073170_);fill:#AAAAAB;" d="M40.4,14.4
							c-0.9-2.2-1.6-4.4-2.1-6.7h-2.9c0,0,1.4,5.5,3.9,10.1h2.3c2.4-4.6,3.9-10.1,3.9-10.1h-2.9C42,10,41.2,12.2,40.4,14.4"/>
					</g>
				</g>
			</g>
		</g>
	</g>
	<g id="Layer_2_00000010289399819827842630000018092187671668931516_" class="st1">
		<g>
			<g>
				<g>
					<g>
						<defs>
							<rect id="SVGID_00000117662348052198246910000000637741721542277309_" y="0.4" width="100.1" height="19.3"/>
						</defs>
						<clipPath id="SVGID_00000111179172525617396700000011756905488872999317_">
							<use xlink:href="#SVGID_00000117662348052198246910000000637741721542277309_"  style="overflow:visible;"/>
						</clipPath>
						<path style="clip-path:url(#SVGID_00000111179172525617396700000011756905488872999317_);fill:#AAAAAB;" d="M32.5,4.2
							L32.5,4.2c0.2,0,0.4,0.2,0.4,0.4V14c0,0.2-0.1,0.3-0.3,0.3s-0.3-0.1-0.3-0.3V4.6C32.2,4.4,32.4,4.2,32.5,4.2 M23.9,4.7h5.9
							c0.2,0,0.3,0.2,0.3,0.4c0,0.2-0.1,0.3-0.3,0.3h-5.6v3.9h5.1c0.2,0,0.3,0.1,0.3,0.3s-0.1,0.3-0.3,0.3h-5V14
							c0,0.2-0.2,0.4-0.4,0.4c-0.2,0-0.4-0.2-0.4-0.4V5.1l0,0C23.6,4.9,23.7,4.7,23.9,4.7 M41.1,7.6c0-0.2-0.2-0.3-0.3-0.3
							c-0.2,0-0.3,0.2-0.3,0.3v3.9c0,1.3-1.1,2.4-2.4,2.4c-1.4,0-2.2-0.9-2.2-2.4V7.6c0-0.2-0.2-0.3-0.3-0.3c-0.2,0-0.3,0.2-0.3,0.3
							v4c0,1.6,1,2.8,2.7,2.8c1,0,2-0.5,2.5-1.5v1c0,0.2,0.2,0.3,0.3,0.3c0.2,0,0.3-0.2,0.3-0.3l0,0V7.6z M47.1,7.7
							c0,0.2-0.2,0.3-0.3,0.3h-2.2v4.5c0,1,0.5,1.4,1.4,1.4c0.3,0,0.5,0,0.8-0.1c0.2,0,0.3,0.1,0.3,0.3c0,0.1-0.1,0.2-0.2,0.3
							c-0.3,0.1-0.7,0.2-1,0.2c-1,0-1.9-0.6-1.9-1.9V7.9h-0.8c-0.2,0-0.3-0.2-0.3-0.3c0-0.1,0.2-0.3,0.3-0.3H44v-2
							C44,5.1,44.1,5,44.3,5l0,0c0.2,0,0.3,0.2,0.3,0.3v2h2.2C47,7.4,47.1,7.5,47.1,7.7 M52.2,7.9c0.2,0,0.3-0.1,0.3-0.3
							c0-0.1-0.2-0.3-0.3-0.3H50v-2C50,5.1,49.8,5,49.7,5l0,0c-0.2,0-0.3,0.2-0.3,0.3v2h-0.8c-0.2,0-0.3,0.1-0.3,0.3
							c0,0.1,0.2,0.3,0.3,0.3h0.8v4.6c0,1.3,0.8,1.9,1.9,1.9c0.3,0,0.7,0,1-0.2c0.1,0,0.2-0.2,0.2-0.3c0-0.2-0.1-0.3-0.3-0.3
							c-0.2,0.1-0.5,0.1-0.8,0.1c-0.8,0-1.4-0.4-1.4-1.4V7.9H52.2z M53.7,10.8c0-2,1.4-3.7,3.2-3.7c1.9,0,3.2,1.6,3.2,3.7
							c0,0.2-0.2,0.3-0.3,0.3h-5.3c0.1,1.7,1.3,2.8,2.7,2.8c0.8,0,1.6-0.4,2.2-1c0,0,0.1-0.1,0.2-0.1c0.2,0,0.3,0.2,0.3,0.3
							s0,0.2-0.1,0.2c-0.7,0.8-1.6,1.2-2.6,1.1C55.2,14.5,53.7,13.1,53.7,10.8 M54.4,10.5c0.1-1.6,1.2-2.7,2.5-2.7
							c1.6,0,2.4,1.3,2.4,2.7H54.4z M62.6,9.4c0.4-1.2,1.5-2,2.7-2.1c0.2,0,0.4,0.2,0.4,0.4c0,0.2-0.1,0.4-0.3,0.4l0,0
							c-1.5,0.2-2.7,1.2-2.7,3.5v2.6c0,0.2-0.2,0.3-0.4,0.3S62,14.3,62,14.2V7.7c0-0.2,0.2-0.3,0.4-0.3s0.3,0.2,0.3,0.3L62.6,9.4
							L62.6,9.4z M76.1,6.9c-0.5,0-0.8,0.3-1,0.8l-1.2,3.7l-1.2-3.7c-0.1-0.5-0.5-0.8-1.1-0.8h-0.1c-0.5,0-0.9,0.3-1.1,0.8l-1.2,3.7
							l-1.1-3.7c-0.1-0.4-0.5-0.8-1-0.8l0,0c-0.5,0-0.9,0.4-0.9,1c0,0.2,0,0.3,0.1,0.5l1.8,5.2c0.1,0.5,0.5,0.9,1.1,0.9h0.1
							c0.5,0,0.9-0.4,1.1-0.9l1.2-3.7l1.2,3.7c0.1,0.5,0.6,0.9,1.1,0.9H74c0.5,0,1-0.4,1.2-0.9L77,8.3c0-0.1,0.1-0.3,0.1-0.4l0,0
							C77,7.3,76.6,6.9,76.1,6.9 M78.8,7.3c0.8-0.2,1.5-0.4,2.3-0.4c1.1,0,1.9,0.3,2.5,0.8c0.5,0.7,0.8,1.5,0.8,2.4v3.3
							c0,0.6-0.4,1-1,1c-0.5,0-0.9-0.4-1-0.9c-0.5,0.6-1.3,1-2.2,0.9c-1.3,0-2.4-0.8-2.4-2.3c0-1.6,1.2-2.4,2.9-2.4
							c0.6,0,1.2,0.1,1.7,0.3V9.9c0-0.9-0.5-1.3-1.6-1.3c-0.5,0-0.9,0-1.4,0.2c-0.1,0-0.2,0-0.3,0c-0.5,0-0.8-0.3-0.8-0.8
							C78.4,7.7,78.5,7.4,78.8,7.3 M82.5,11.7c0,0.8-0.7,1.3-1.6,1.2c-0.6,0-1.1-0.3-1.1-0.9l0,0c0-0.6,0.5-1,1.4-1
							c0.4,0,0.9,0.1,1.3,0.3C82.5,11.3,82.5,11.7,82.5,11.7z M90.5,7.6c0.1-0.4,0.5-0.7,0.9-0.7c0.5,0,1,0.4,1,1l0,0
							c0,0.2,0,0.3-0.1,0.5l-2.1,5.2c-0.2,0.5-0.7,0.8-1.2,0.9h-0.1c-0.5,0-1-0.4-1.2-0.9l-2.2-5.2c-0.1-0.2-0.1-0.3-0.1-0.5
							c0-0.6,0.5-1,1-1s0.8,0.3,1,0.8l1.6,4.2L90.5,7.6z M96.7,6.8c-2.1,0-3.6,1.7-3.6,3.8V11c0.1,2,1.8,3.6,3.7,3.5
							c0.9,0,1.8-0.3,2.5-0.9c0.2-0.2,0.3-0.4,0.3-0.6c0-0.4-0.4-0.8-0.8-0.8c-0.2,0-0.4,0-0.5,0.2c-0.4,0.3-0.9,0.5-1.5,0.5
							c-0.8,0-1.6-0.6-1.7-1.5h4.1c0.5,0,0.9-0.5,0.8-1v-0.2C100.2,8.3,98.6,6.8,96.7,6.8 M96.7,8.5c-0.8,0-1.4,0.6-1.6,1.6h3
							C98.1,9.1,97.6,8.5,96.7,8.5"/>
					</g>
				</g>
			</g>
			<g>
				<g>
					<g>
						<defs>
							<rect id="SVGID_00000056403672834509310190000016061463404951490716_" y="0.4" width="100.1" height="19.3"/>
						</defs>
						<clipPath id="SVGID_00000078739126772888829620000014761955197396572582_">
							<use xlink:href="#SVGID_00000056403672834509310190000016061463404951490716_"  style="overflow:visible;"/>
						</clipPath>
						<path style="clip-path:url(#SVGID_00000078739126772888829620000014761955197396572582_);fill:#AAAAAB;" d="M14.3,0.5
							c8.9-1.3,3.2,6,0.4,8.1c1.9,1.4,3.8,3.4,4.7,5.6c1.6,4.1-2.3,4.7-5.1,3.7c-3.1-1.1-5.9-3.3-7.7-6c-0.5,0-1.1-0.1-1.6-0.2
							c1,2.8,1.5,5.7,1.2,8c0-4.7-2.4-9.4-5.7-13.4c-1.2-1.4,0-2.4,1.1-1.1c0.7,1,1.4,2,2,3.1C4.7,4.4,10.4,1,14.3,0.5 M13,7.5
							c1.7-1,7-6.5,2.1-6C12.3,1.8,8.8,4.3,7.4,6C9.4,5.7,11.4,6.6,13,7.5 M7.4,7.1c1.3-0.1,2.8,0.6,3.9,1.2c-1.1,0.6-2.3,0.9-3.5,1
							C6,9.3,5.7,7.3,7.4,7.1 M8.1,11.7c1.6,1.7,3.8,3.4,6.1,4c1.3,0.4,2.8,0.2,2.3-1.6c-0.5-1.7-2-3.2-3.4-4.4
							c-0.4,0.3-0.8,0.5-1.2,0.7C10.7,11.1,9.4,11.5,8.1,11.7"/>
					</g>
				</g>
			</g>
		</g>
	</g>
</g>
<g id="fw_logo_main_copy">
	<path id="Shape_10_" class="st10" d="M32.9,4.3L32.9,4.3c0.2,0,0.4,0.2,0.4,0.4v9.2c0,0.2-0.1,0.3-0.3,0.3c-0.2,0-0.3-0.1-0.3-0.3
		V4.6C32.7,4.5,32.8,4.3,32.9,4.3z M24.5,4.8h5.8c0.2,0,0.3,0.2,0.3,0.4c0,0.2-0.1,0.3-0.3,0.3h-5.5v3.9h5c0.2,0,0.3,0.1,0.3,0.3
		c0,0.2-0.1,0.3-0.3,0.3h-5v4c0,0.2-0.2,0.4-0.4,0.4c-0.2,0-0.4-0.2-0.4-0.4V5.2h0C24.1,4.9,24.2,4.8,24.5,4.8z M41.4,7.7
		c0-0.2-0.2-0.3-0.3-0.3c-0.2,0-0.3,0.2-0.3,0.3v3.9c0,1.3-1.1,2.4-2.3,2.3c-1.4,0-2.1-0.9-2.1-2.4V7.7c0-0.2-0.2-0.3-0.3-0.3
		c-0.2,0-0.3,0.2-0.3,0.3v3.9c0,1.6,1,2.8,2.7,2.8c1,0,2-0.5,2.5-1.4v1c0,0.2,0.2,0.3,0.3,0.3c0.2,0,0.3-0.2,0.3-0.3h0V7.7z
		 M47.3,7.7C47.3,7.9,47.2,8,47,8h-2.1v4.4c0,1,0.5,1.4,1.4,1.4c0.3,0,0.5,0,0.8-0.1c0.2,0,0.3,0.1,0.3,0.3c0,0.1-0.1,0.2-0.2,0.3
		c-0.3,0.1-0.7,0.2-1,0.2c-1,0-1.8-0.6-1.8-1.9V8h-0.7c-0.2,0-0.3-0.2-0.3-0.3c0-0.1,0.2-0.3,0.3-0.3h0.7V5.5c0-0.2,0.1-0.3,0.3-0.3
		h0c0.2,0,0.3,0.2,0.3,0.3v1.9h2.1C47.2,7.4,47.3,7.5,47.3,7.7z M52.3,8c0.2,0,0.3-0.1,0.3-0.3s-0.2-0.3-0.3-0.3h-2.1V5.5
		c0-0.2-0.2-0.3-0.3-0.3h0c-0.2,0-0.3,0.2-0.3,0.3v1.9h-0.7c-0.2,0-0.3,0.1-0.3,0.3c0,0.1,0.2,0.3,0.3,0.3h0.7v4.5
		c0,1.3,0.8,1.9,1.8,1.9c0.3,0,0.7,0,1-0.2c0.1,0,0.2-0.2,0.2-0.3c0-0.2-0.1-0.3-0.3-0.3c-0.2,0.1-0.5,0.1-0.8,0.1
		c-0.8,0-1.4-0.4-1.4-1.4V8H52.3z M53.8,10.8c0-2,1.4-3.6,3.2-3.6c1.9,0,3.1,1.6,3.1,3.6c0,0.2-0.2,0.3-0.3,0.3h-5.3
		c0.1,1.7,1.3,2.7,2.6,2.7c0.8,0,1.6-0.4,2.2-1c0,0,0.1-0.1,0.2-0.1c0.2,0,0.3,0.2,0.3,0.3c0,0.1,0,0.2-0.1,0.2
		c-0.7,0.7-1.6,1.1-2.6,1.1C55.3,14.5,53.8,13.1,53.8,10.8L53.8,10.8z M54.4,10.5c0.1-1.5,1.2-2.7,2.5-2.7c1.5,0,2.3,1.3,2.4,2.7
		H54.4z M62.6,9.4c0.4-1.1,1.5-2,2.7-2.1c0.2,0,0.4,0.2,0.4,0.4c0,0.2-0.1,0.4-0.3,0.4h0c-1.4,0.2-2.7,1.2-2.7,3.5v2.5
		c0,0.2-0.2,0.3-0.4,0.3c-0.2,0-0.3-0.2-0.3-0.3V7.7c0-0.2,0.2-0.3,0.4-0.3c0.2,0,0.3,0.2,0.3,0.3V9.4z M75.8,7
		c-0.5,0-0.8,0.3-1,0.8l-1.1,3.7l-1.1-3.7c-0.1-0.5-0.5-0.8-1.1-0.8h-0.1c-0.5,0-0.9,0.3-1.1,0.8l-1.1,3.7l-1.1-3.7
		C68,7.3,67.6,7,67.2,7h0c-0.5,0-0.9,0.4-0.9,1c0,0.2,0,0.3,0.1,0.5l0,0l1.8,5.1c0.1,0.5,0.5,0.9,1.1,0.9h0.1c0.5,0,0.9-0.4,1.1-0.9
		l1.1-3.7l1.1,3.7c0.1,0.5,0.6,0.9,1.1,0.9h0.1c0.5,0,1-0.4,1.1-0.9l1.8-5.2c0-0.1,0.1-0.3,0.1-0.4v0C76.8,7.4,76.4,7,75.8,7z
		 M78.6,7.3C79.3,7.1,80,6.9,80.8,7c1.1,0,1.8,0.3,2.5,0.8c0.5,0.7,0.8,1.5,0.8,2.3v3.2c0,0.6-0.4,1-1,1c-0.5,0-0.9-0.4-1-0.9
		c-0.5,0.6-1.3,1-2.1,0.9c-1.3,0-2.4-0.8-2.4-2.2c0-1.6,1.2-2.4,2.8-2.4c0.6,0,1.2,0.1,1.7,0.3V9.9c0-0.9-0.5-1.3-1.5-1.3
		c-0.5,0-0.9,0-1.4,0.2c-0.1,0-0.2,0-0.3,0c-0.5,0-0.8-0.3-0.8-0.8C78.1,7.8,78.2,7.4,78.6,7.3z M82.1,11.7c0,0.8-0.7,1.3-1.6,1.2
		c-0.6,0-1.1-0.3-1.1-0.9v0c0-0.6,0.5-1,1.4-1c0.4,0,0.9,0.1,1.3,0.3L82.1,11.7L82.1,11.7z M90,7.6c0.1-0.4,0.5-0.7,0.9-0.7
		c0.5,0,1,0.4,1,1v0c0,0.2,0,0.3-0.1,0.5l-2.1,5.1c-0.2,0.5-0.7,0.8-1.2,0.9h-0.1c-0.5,0-1-0.4-1.1-0.9L85,8.4
		c-0.1-0.2-0.1-0.3-0.1-0.5c0-0.6,0.5-1,1-1c0.5,0,0.8,0.3,1,0.7l1.5,4.2L90,7.6z M96.2,6.9c-2.1,0-3.5,1.7-3.5,3.8V11
		c0.1,2,1.8,3.6,3.7,3.4c0.9,0,1.8-0.3,2.5-0.9c0.2-0.2,0.3-0.4,0.3-0.6l0,0c0-0.4-0.4-0.8-0.8-0.8c-0.2,0-0.4,0-0.5,0.2
		c-0.4,0.3-0.9,0.5-1.4,0.5c-0.8,0-1.6-0.6-1.7-1.4h4c0.5,0,0.9-0.5,0.8-1v-0.2C99.5,8.3,98,6.8,96.2,6.9z M96.2,8.5
		c-0.8,0-1.4,0.6-1.5,1.5h3C97.5,9.2,97,8.5,96.2,8.5z"/>
	<path id="Shape_2" class="st11" d="M15,0.7c8.8-1.3,3.2,5.9,0.4,7.9c1.9,1.4,3.8,3.3,4.6,5.5c1.5,4-2.2,4.6-5,3.6
		c-3.1-1.1-5.8-3.3-7.6-5.9c-0.5,0-1.1-0.1-1.6-0.2c1,2.8,1.4,5.6,1.2,7.9c0-4.6-2.3-9.3-5.6-13.1C0.2,5,1.5,4,2.5,5.3
		c0.7,1,1.4,2,1.9,3C5.6,4.5,11.2,1.2,15,0.7z M13.8,7.5c1.7-1,6.9-6.4,2.1-5.9C13,1.9,9.6,4.4,8.2,6C10.2,5.8,12.2,6.6,13.8,7.5z
		 M8.2,7.2c1.3-0.1,2.8,0.6,3.9,1.2C11,8.9,9.8,9.2,8.6,9.3C6.8,9.3,6.5,7.4,8.2,7.2z M8.9,11.7c1.6,1.7,3.7,3.3,6,3.9
		c1.3,0.4,2.8,0.2,2.3-1.6c-0.5-1.7-2-3.2-3.3-4.3c-0.4,0.3-0.8,0.5-1.2,0.7C11.5,11,10.2,11.5,8.9,11.7z"/>
</g>
</svg>
