<?xml version="1.0" encoding="utf-8"?>
<!-- Generator: Adobe Illustrator 21.0.0, SVG Export Plug-In . SVG Version: 6.00 Build 0)  -->
<svg version="1.1" id="Layer_1" xmlns="http://www.w3.org/2000/svg" xmlns:xlink="http://www.w3.org/1999/xlink" x="0px" y="0px"
	 viewBox="0 0 103 20" style="enable-background:new 0 0 103 20;" xml:space="preserve">
<style type="text/css">
	.st0{display:none;}
	.st1{display:inline;}
	.st2{clip-path:url(#SVGID_2_);fill:#AAAAAB;}
	.st3{clip-path:url(#SVGID_4_);fill:#FFFFFF;}
	.st4{clip-path:url(#SVGID_6_);fill:#AAAAAB;}
	.st5{clip-path:url(#SVGID_8_);fill:#AAAAAB;}
	.st6{clip-path:url(#SVGID_10_);fill:#AAAAAB;}
	.st7{clip-path:url(#SVGID_12_);fill:#AAAAAB;}
	.st8{clip-path:url(#SVGID_14_);fill:#AAAAAB;}
	.st9{clip-path:url(#SVGID_16_);fill:#AAAAAB;}
	.st10{clip-path:url(#SVGID_18_);fill:#AAAAAB;}
	.st11{clip-path:url(#SVGID_20_);fill:#AAAAAB;}
</style>
<g id="Layer_1_1_" class="st0">
	<g class="st1">
		<g>
			<defs>
				<rect id="SVGID_1_" y="0.4" width="55.7" height="19.2"/>
			</defs>
			<clipPath id="SVGID_2_">
				<use xlink:href="#SVGID_1_"  style="overflow:visible;"/>
			</clipPath>
			<path class="st2" d="M9.6,0.4c5.3,0,9.6,4.3,9.6,9.6s-4.3,9.6-9.6,9.6S0,15.3,0,10S4.3,0.4,9.6,0.4"/>
		</g>
		<g>
			<defs>
				<rect id="SVGID_3_" y="0.4" width="55.7" height="19.2"/>
			</defs>
			<clipPath id="SVGID_4_">
				<use xlink:href="#SVGID_3_"  style="overflow:visible;"/>
			</clipPath>
			<path class="st3" d="M9.6,14.1C7.5,9.2,5.9,4.7,5.9,4.7H2.6c0,0,2,5.8,5.7,13.2h2.6c3.7-7.3,5.7-13.2,5.7-13.2h-3.3
				C13.3,4.7,11.8,9.2,9.6,14.1"/>
		</g>
		<g>
			<defs>
				<rect id="SVGID_5_" y="0.4" width="55.7" height="19.2"/>
			</defs>
			<clipPath id="SVGID_6_">
				<use xlink:href="#SVGID_5_"  style="overflow:visible;"/>
			</clipPath>
			<path class="st4" d="M55.6,13.5h-6.4c0,0,0.1,2.2,3,2.2c1.4,0,2.9-0.4,2.9-0.4l0.3,2.3c0,0-1.4,0.6-3.4,0.6
				c-2.9,0-5.4-1.4-5.4-5.5c0-3.2,2-5.2,4.9-5.2C55.6,7.4,55.9,11.8,55.6,13.5 M51.2,9.5c-1.9,0-2,2-2,2h4
				C53.2,11.5,53,9.5,51.2,9.5"/>
		</g>
		<g>
			<defs>
				<rect id="SVGID_7_" y="0.4" width="55.7" height="19.2"/>
			</defs>
			<clipPath id="SVGID_8_">
				<use xlink:href="#SVGID_7_"  style="overflow:visible;"/>
			</clipPath>
			<path class="st5" d="M33.4,10.1l0.4-2.3c0,0-3.3-1-6,0.9v9.2h2.9v-7.4C31.8,9.5,33.4,10.1,33.4,10.1"/>
		</g>
		<g>
			<defs>
				<rect id="SVGID_9_" y="0.4" width="55.7" height="19.2"/>
			</defs>
			<clipPath id="SVGID_10_">
				<use xlink:href="#SVGID_9_"  style="overflow:visible;"/>
			</clipPath>
			<path class="st6" d="M25.6,13.5h-6.4c0,0,0.1,2.2,3,2.2c1.4,0,2.9-0.4,2.9-0.4l0.3,2.3c0,0-1.4,0.6-3.4,0.6
				c-2.9,0-5.4-1.4-5.4-5.5c0-3.2,2-5.2,4.9-5.2C25.6,7.4,25.9,11.8,25.6,13.5 M21.2,9.5c-1.9,0-2,2-2,2h4
				C23.2,11.5,23,9.5,21.2,9.5"/>
		</g>
		<g>
			<defs>
				<rect id="SVGID_11_" y="0.4" width="55.7" height="19.2"/>
			</defs>
			<clipPath id="SVGID_12_">
				<use xlink:href="#SVGID_11_"  style="overflow:visible;"/>
			</clipPath>
			<path class="st7" d="M40.4,14.4c-0.9-2.2-1.6-4.4-2.1-6.7h-2.9c0,0,1.4,5.5,3.9,10.1h2.3c2.4-4.6,3.9-10.1,3.9-10.1h-2.9
				C42,10,41.2,12.2,40.4,14.4"/>
		</g>
	</g>
</g>
<g id="Layer_2" class="st0">
	<g class="st1">
		<g>
			<defs>
				<rect id="SVGID_13_" y="0.4" width="100.1" height="19.3"/>
			</defs>
			<clipPath id="SVGID_14_">
				<use xlink:href="#SVGID_13_"  style="overflow:visible;"/>
			</clipPath>
			<path class="st8" d="M32.5,4.2L32.5,4.2c0.2,0,0.4,0.2,0.4,0.4V14c0,0.2-0.1,0.3-0.3,0.3s-0.3-0.1-0.3-0.3V4.6
				C32.2,4.4,32.4,4.2,32.5,4.2 M23.9,4.7h5.9c0.2,0,0.3,0.2,0.3,0.4c0,0.2-0.1,0.3-0.3,0.3h-5.6v3.9h5.1c0.2,0,0.3,0.1,0.3,0.3
				s-0.1,0.3-0.3,0.3h-5V14c0,0.2-0.2,0.4-0.4,0.4c-0.2,0-0.4-0.2-0.4-0.4V5.1l0,0C23.6,4.9,23.7,4.7,23.9,4.7 M41.1,7.6
				c0-0.2-0.2-0.3-0.3-0.3c-0.2,0-0.3,0.2-0.3,0.3v3.9c0,1.3-1.1,2.4-2.4,2.4c-1.4,0-2.2-0.9-2.2-2.4V7.6c0-0.2-0.2-0.3-0.3-0.3
				c-0.2,0-0.3,0.2-0.3,0.3v4c0,1.6,1,2.8,2.7,2.8c1,0,2-0.5,2.5-1.5v1c0,0.2,0.2,0.3,0.3,0.3c0.2,0,0.3-0.2,0.3-0.3l0,0V7.6z
				 M47.1,7.7c0,0.2-0.2,0.3-0.3,0.3h-2.2v4.5c0,1,0.5,1.4,1.4,1.4c0.3,0,0.5,0,0.8-0.1c0.2,0,0.3,0.1,0.3,0.3
				c0,0.1-0.1,0.2-0.2,0.3c-0.3,0.1-0.7,0.2-1,0.2c-1,0-1.9-0.6-1.9-1.9V7.9h-0.8c-0.2,0-0.3-0.2-0.3-0.3c0-0.1,0.2-0.3,0.3-0.3H44
				v-2C44,5.1,44.1,5,44.3,5l0,0c0.2,0,0.3,0.2,0.3,0.3v2h2.2C47,7.4,47.1,7.5,47.1,7.7 M52.2,7.9c0.2,0,0.3-0.1,0.3-0.3
				c0-0.1-0.2-0.3-0.3-0.3H50v-2C50,5.1,49.8,5,49.7,5l0,0c-0.2,0-0.3,0.2-0.3,0.3v2h-0.8c-0.2,0-0.3,0.1-0.3,0.3
				c0,0.1,0.2,0.3,0.3,0.3h0.8v4.6c0,1.3,0.8,1.9,1.9,1.9c0.3,0,0.7,0,1-0.2c0.1,0,0.2-0.2,0.2-0.3c0-0.2-0.1-0.3-0.3-0.3
				c-0.2,0.1-0.5,0.1-0.8,0.1c-0.8,0-1.4-0.4-1.4-1.4V7.9H52.2z M53.7,10.8c0-2,1.4-3.7,3.2-3.7c1.9,0,3.2,1.6,3.2,3.7
				c0,0.2-0.2,0.3-0.3,0.3h-5.3c0.1,1.7,1.3,2.8,2.7,2.8c0.8,0,1.6-0.4,2.2-1c0,0,0.1-0.1,0.2-0.1c0.2,0,0.3,0.2,0.3,0.3
				s0,0.2-0.1,0.2c-0.7,0.8-1.6,1.2-2.6,1.1C55.2,14.5,53.7,13.1,53.7,10.8 M54.4,10.5c0.1-1.6,1.2-2.7,2.5-2.7
				c1.6,0,2.4,1.3,2.4,2.7H54.4z M62.6,9.4c0.4-1.2,1.5-2,2.7-2.1c0.2,0,0.4,0.2,0.4,0.4c0,0.2-0.1,0.4-0.3,0.4l0,0
				c-1.5,0.2-2.7,1.2-2.7,3.5v2.6c0,0.2-0.2,0.3-0.4,0.3S62,14.3,62,14.2V7.7c0-0.2,0.2-0.3,0.4-0.3s0.3,0.2,0.3,0.3L62.6,9.4
				L62.6,9.4z M76.1,6.9c-0.5,0-0.8,0.3-1,0.8l-1.2,3.7l-1.2-3.7c-0.1-0.5-0.5-0.8-1.1-0.8h-0.1c-0.5,0-0.9,0.3-1.1,0.8l-1.2,3.7
				l-1.1-3.7c-0.1-0.4-0.5-0.8-1-0.8l0,0c-0.5,0-0.9,0.4-0.9,1c0,0.2,0,0.3,0.1,0.5l1.8,5.2c0.1,0.5,0.5,0.9,1.1,0.9h0.1
				c0.5,0,0.9-0.4,1.1-0.9l1.2-3.7l1.2,3.7c0.1,0.5,0.6,0.9,1.1,0.9H74c0.5,0,1-0.4,1.2-0.9L77,8.3c0-0.1,0.1-0.3,0.1-0.4l0,0
				C77,7.3,76.6,6.9,76.1,6.9 M78.8,7.3c0.8-0.2,1.5-0.4,2.3-0.4c1.1,0,1.9,0.3,2.5,0.8c0.5,0.7,0.8,1.5,0.8,2.4v3.3
				c0,0.6-0.4,1-1,1c-0.5,0-0.9-0.4-1-0.9c-0.5,0.6-1.3,1-2.2,0.9c-1.3,0-2.4-0.8-2.4-2.3c0-1.6,1.2-2.4,2.9-2.4
				c0.6,0,1.2,0.1,1.7,0.3V9.9c0-0.9-0.5-1.3-1.6-1.3c-0.5,0-0.9,0-1.4,0.2c-0.1,0-0.2,0-0.3,0c-0.5,0-0.8-0.3-0.8-0.8
				C78.4,7.7,78.5,7.4,78.8,7.3 M82.5,11.7c0,0.8-0.7,1.3-1.6,1.2c-0.6,0-1.1-0.3-1.1-0.9l0,0c0-0.6,0.5-1,1.4-1
				c0.4,0,0.9,0.1,1.3,0.3C82.5,11.3,82.5,11.7,82.5,11.7z M90.5,7.6c0.1-0.4,0.5-0.7,0.9-0.7c0.5,0,1,0.4,1,1l0,0
				c0,0.2,0,0.3-0.1,0.5l-2.1,5.2c-0.2,0.5-0.7,0.8-1.2,0.9h-0.1c-0.5,0-1-0.4-1.2-0.9l-2.2-5.2c-0.1-0.2-0.1-0.3-0.1-0.5
				c0-0.6,0.5-1,1-1s0.8,0.3,1,0.8l1.6,4.2L90.5,7.6z M96.7,6.8c-2.1,0-3.6,1.7-3.6,3.8V11c0.1,2,1.8,3.6,3.7,3.5
				c0.9,0,1.8-0.3,2.5-0.9c0.2-0.2,0.3-0.4,0.3-0.6c0-0.4-0.4-0.8-0.8-0.8c-0.2,0-0.4,0-0.5,0.2c-0.4,0.3-0.9,0.5-1.5,0.5
				c-0.8,0-1.6-0.6-1.7-1.5h4.1c0.5,0,0.9-0.5,0.8-1v-0.2C100.2,8.3,98.6,6.8,96.7,6.8 M96.7,8.5c-0.8,0-1.4,0.6-1.6,1.6h3
				C98.1,9.1,97.6,8.5,96.7,8.5"/>
		</g>
		<g>
			<defs>
				<rect id="SVGID_15_" y="0.4" width="100.1" height="19.3"/>
			</defs>
			<clipPath id="SVGID_16_">
				<use xlink:href="#SVGID_15_"  style="overflow:visible;"/>
			</clipPath>
			<path class="st9" d="M14.3,0.5c8.9-1.3,3.2,6,0.4,8.1c1.9,1.4,3.8,3.4,4.7,5.6c1.6,4.1-2.3,4.7-5.1,3.7c-3.1-1.1-5.9-3.3-7.7-6
				c-0.5,0-1.1-0.1-1.6-0.2c1,2.8,1.5,5.7,1.2,8c0-4.7-2.4-9.4-5.7-13.4c-1.2-1.4,0-2.4,1.1-1.1c0.7,1,1.4,2,2,3.1
				C4.7,4.4,10.4,1,14.3,0.5 M13,7.5c1.7-1,7-6.5,2.1-6C12.3,1.8,8.8,4.3,7.4,6C9.4,5.7,11.4,6.6,13,7.5 M7.4,7.1
				c1.3-0.1,2.8,0.6,3.9,1.2c-1.1,0.6-2.3,0.9-3.5,1C6,9.3,5.7,7.3,7.4,7.1 M8.1,11.7c1.6,1.7,3.8,3.4,6.1,4
				c1.3,0.4,2.8,0.2,2.3-1.6c-0.5-1.7-2-3.2-3.4-4.4c-0.4,0.3-0.8,0.5-1.2,0.7C10.7,11.1,9.4,11.5,8.1,11.7"/>
		</g>
	</g>
</g>
<g id="Layer_3">
	<g>
		<g>
			<g>
				<defs>
					<rect id="SVGID_17_" y="0.9" width="102.5" height="18.2"/>
				</defs>
				<clipPath id="SVGID_18_">
					<use xlink:href="#SVGID_17_"  style="overflow:visible;"/>
				</clipPath>
				<path class="st10" d="M14.6,2.6H0.8C0.4,2.6,0,3.1,0,3.5V5c0,0.5,0.4,0.8,0.8,0.8h13.7c0.5,0,0.8-0.4,0.8-0.8V3.5
					C15.5,3.1,15.1,2.6,14.6,2.6 M14.6,11.2H0.8c-0.2,0-0.4,0.1-0.6,0.3C0.1,11.7,0,11.9,0,12.1v1.5c0,0.5,0.4,0.8,0.8,0.8h13.7
					c0.5,0,0.8-0.4,0.8-0.8v-1.5C15.4,11.7,15.1,11.2,14.6,11.2 M8.6,15.6H0.8c-0.2,0-0.4,0.1-0.6,0.3C0.1,16,0,16.2,0,16.4V18
					c0,0.5,0.4,0.8,0.8,0.8h7.7c0.5,0,0.8-0.4,0.8-0.8v-1.5C9.4,16,9.1,15.5,8.6,15.6 M15.5,6.9H0.8C0.6,6.9,0.4,7,0.3,7.2
					C0.1,7.4,0,7.6,0,7.8v1.5c0,0.5,0.4,0.8,0.8,0.8h14.6c0.5,0,0.8-0.4,0.8-0.8V7.8C16.3,7.4,15.9,6.9,15.5,6.9"/>
			</g>
		</g>
		<g>
			<g>
				<defs>
					<rect id="SVGID_19_" y="0.9" width="102.5" height="18.2"/>
				</defs>
				<clipPath id="SVGID_20_">
					<use xlink:href="#SVGID_19_"  style="overflow:visible;"/>
				</clipPath>
				<path class="st11" d="M31.5,6.1C31.1,5.7,30.6,5.3,30,5c-0.6-0.2-1.2-0.4-1.8-0.4S27,4.8,26.5,5c-0.4,0.1-0.7,0.4-1,0.7V5.5
					c0-0.1-0.1-0.3-0.1-0.4C25.3,5,25.1,5,25,5h-1.9c-0.1,0-0.3,0-0.4,0.1c-0.1,0.1-0.1,0.2-0.1,0.4v12.8c0,0.1,0.1,0.3,0.1,0.4
					c0.1,0.1,0.2,0.1,0.4,0.1h2c0.1,0,0.3-0.1,0.4-0.1c0.1-0.1,0.1-0.2,0.1-0.4v-4.4c0.3,0.3,0.6,0.6,1.1,0.6
					c0.5,0.2,1.1,0.3,1.6,0.3c0.6,0,1.2-0.1,1.8-0.4c0.6-0.2,1.1-0.6,1.5-1.1s0.8-1,1.1-1.6s0.4-1.4,0.4-2.1S33,8.2,32.7,7.5
					C32.3,7.1,31.9,6.6,31.5,6.1 M29.7,10.7c-0.1,0.3-0.3,0.5-0.5,0.7c-0.4,0.4-1,0.6-1.5,0.6c-0.3,0-0.6-0.1-0.8-0.2
					c-0.3-0.1-0.5-0.3-0.7-0.5s-0.4-0.5-0.5-0.7c-0.2-0.6-0.2-1.2,0-1.8c0.1-0.3,0.3-0.5,0.5-0.7s0.4-0.4,0.7-0.5s0.6-0.2,0.8-0.2
					s0.6,0.1,0.8,0.2C28.8,7.9,29,8,29.2,8.2s0.4,0.4,0.5,0.7C29.9,9.5,29.9,10.2,29.7,10.7 M43.3,5h-1.9c-0.1,0-0.3,0.1-0.4,0.1
					c-0.1,0.1-0.2,0.2-0.2,0.4v0.2c-0.2-0.3-0.6-0.5-0.8-0.6c-0.6-0.3-1.1-0.4-1.7-0.4C37,4.7,35.9,5.2,35,6c-0.5,0.5-0.8,1-1.1,1.6
					S33.5,9,33.5,9.7s0.1,1.4,0.4,2.1c0.3,0.6,0.6,1.1,1.1,1.6c0.8,0.9,2,1.4,3.3,1.4c0.6,0,1.2-0.1,1.7-0.4
					c0.4-0.1,0.6-0.4,0.9-0.6v0.3c0,0.1,0.1,0.3,0.1,0.4c0.1,0.1,0.2,0.1,0.4,0.1h1.9c0.1,0,0.3-0.1,0.4-0.1
					c0.1-0.1,0.1-0.2,0.1-0.4V5.6c0-0.1-0.1-0.3-0.1-0.4C43.6,5.1,43.5,5,43.3,5 M40.7,10.7c-0.1,0.3-0.3,0.5-0.5,0.7
					s-0.4,0.4-0.7,0.5c-0.6,0.3-1.2,0.3-1.8,0c-0.3-0.1-0.5-0.3-0.7-0.5s-0.4-0.5-0.5-0.7c-0.2-0.6-0.2-1.2,0-1.8
					c0.1-0.3,0.3-0.5,0.5-0.7s0.4-0.4,0.7-0.5c0.6-0.3,1.2-0.3,1.7,0c0.3,0.1,0.5,0.3,0.7,0.5s0.4,0.4,0.5,0.7
					C40.9,9.5,40.9,10.2,40.7,10.7 M62.5,9.6C62.3,9.4,62,9.2,61.6,9c-0.4-0.1-0.8-0.3-1.1-0.4L59,8.4c-0.4-0.1-0.6-0.1-0.8-0.3
					c-0.1,0-0.2-0.2-0.2-0.3s0.1-0.3,0.3-0.4c0.3-0.1,0.6-0.2,0.8-0.2c0.4,0,0.8,0.1,1.1,0.2c0.4,0.1,0.6,0.3,1,0.5
					c0.4,0.3,0.8,0.2,1.1-0.1L63,7c0.1-0.1,0.2-0.3,0.2-0.5S63.1,6.1,62.9,6c-0.3-0.3-0.8-0.6-1.4-0.8c-0.6-0.3-1.4-0.4-2.4-0.4
					c-0.6,0-1.1,0.1-1.7,0.2c-0.5,0.1-0.9,0.4-1.3,0.6s-0.6,0.6-0.8,1.1C55.1,7.1,55,7.5,55,8c0,0.8,0.2,1.5,0.7,1.9
					c0.5,0.5,1.1,0.8,1.9,1l1.5,0.4c0.4,0.1,0.6,0.1,1,0.3c0.1,0.1,0.3,0.2,0.3,0.4c0,0.1-0.1,0.4-0.3,0.5s-0.5,0.2-0.9,0.2
					s-0.8-0.1-1.2-0.3c-0.4-0.1-0.7-0.4-1-0.6c-0.1-0.1-0.3-0.2-0.4-0.3c-0.1-0.1-0.4,0-0.6,0.2l-0.8,0.6c-0.2,0.1-0.4,0.5-0.3,0.7
					c0.1,0.3,0.3,0.6,0.7,0.9c1.1,0.7,2.3,1.1,3.6,1.1c0.6,0,1.2-0.1,1.8-0.2c0.5-0.1,1-0.4,1.3-0.7c0.4-0.3,0.7-0.6,0.9-1.1
					s0.3-0.8,0.3-1.3c0-0.4-0.1-0.8-0.2-1.2C63,10.1,62.8,9.8,62.5,9.6 M71,11.9c-0.1-0.1-0.2-0.3-0.4-0.3c-0.1,0-0.4,0.1-0.5,0.1
					c-0.2,0.1-0.5,0.2-0.8,0.3c-0.1,0-0.2,0-0.3,0c-0.1,0-0.2-0.1-0.3-0.1c-0.1-0.1-0.1-0.2-0.2-0.3s-0.1-0.4-0.1-0.5V7.6h2.5
					c0.1,0,0.3-0.1,0.4-0.1c0.1-0.1,0.1-0.2,0.1-0.4V5.7c0-0.1-0.1-0.3-0.1-0.4c-0.1-0.1-0.2-0.1-0.4-0.1h-2.5V2.8
					c0-0.1-0.1-0.3-0.1-0.4c-0.1-0.1-0.2-0.1-0.4-0.1h-2c-0.1,0-0.3,0.1-0.4,0.1c-0.1,0.1-0.1,0.2-0.1,0.4v2.4h-1.1
					c-0.1,0-0.3,0.1-0.4,0.1c-0.1,0.1-0.1,0.2-0.1,0.4v1.5c0,0.1,0.1,0.3,0.1,0.4c0.1,0.1,0.2,0.1,0.4,0.1h1.1v4.2
					c0,0.5,0.1,1,0.3,1.4c0.2,0.4,0.4,0.7,0.8,1c0.3,0.3,0.6,0.4,1.1,0.6c0.4,0.1,0.8,0.2,1.2,0.2c0.6,0,1.1-0.1,1.6-0.3
					c0.5-0.1,0.9-0.4,1.3-0.8c0.2-0.2,0.2-0.6,0.1-0.8L71,11.9z M81.6,5h-1.9c-0.1,0-0.3,0.1-0.4,0.1c-0.1,0.1-0.1,0.2-0.1,0.4v0.2
					c-0.2-0.3-0.6-0.5-0.8-0.6c-0.6-0.3-1.1-0.4-1.7-0.4c-1.3,0-2.4,0.5-3.3,1.3c-0.5,0.5-0.8,1-1.1,1.6C72,8.2,71.9,9,71.9,9.7
					s0.1,1.4,0.4,2.1c0.2,0.6,0.6,1.1,1.1,1.6c0.8,0.9,2,1.4,3.3,1.4c0.6,0,1.2-0.1,1.7-0.4c0.4-0.1,0.6-0.4,0.9-0.6v0.3
					c0,0.1,0.1,0.3,0.1,0.4c0.1,0.1,0.2,0.1,0.4,0.1h1.9c0.3,0,0.5-0.2,0.5-0.5V5.6c0-0.1-0.1-0.3-0.1-0.4C81.8,5.1,81.7,5,81.6,5
					 M79,10.7c-0.1,0.3-0.3,0.5-0.5,0.7s-0.4,0.4-0.7,0.5c-0.3,0.1-0.6,0.2-0.8,0.2s-0.6-0.1-0.8-0.2c-0.3-0.1-0.5-0.3-0.7-0.5
					s-0.4-0.5-0.4-0.7c-0.2-0.6-0.2-1.2,0-1.8c0.1-0.3,0.3-0.5,0.4-0.7c0.2-0.2,0.4-0.4,0.7-0.5c0.3-0.1,0.6-0.2,0.8-0.2
					c0.3,0,0.6,0.1,0.8,0.2c0.3,0.1,0.5,0.3,0.7,0.5C78.7,8.5,78.8,8.7,79,9C79.2,9.5,79.2,10.2,79,10.7 M92.1,11.8L91,11
					c-0.2-0.1-0.4-0.2-0.6-0.1C90.3,11,90.1,11,90,11.2c-0.2,0.3-0.6,0.6-0.8,0.8c-0.4,0.2-0.7,0.3-1.1,0.3s-0.8-0.1-1.2-0.4
					c-0.4-0.3-0.6-0.6-0.8-1.1C86,10.5,86,10.2,86,10c0-0.3,0.1-0.6,0.1-0.9c0.1-0.3,0.2-0.5,0.4-0.7s0.4-0.4,0.7-0.5
					c0.3-0.1,0.6-0.2,0.8-0.2c0.4,0,0.8,0.1,1.1,0.3c0.4,0.2,0.6,0.5,0.8,0.8C90,8.9,90.1,9,90.3,9.1c0.1,0.1,0.4,0,0.6-0.1L92,8.2
					c0.1-0.1,0.2-0.2,0.3-0.4c0.1-0.1,0.1-0.4-0.1-0.5c-0.4-0.6-1-1.2-1.7-1.6C89.9,5,89,4.8,88,4.8c-0.7,0-1.3,0.1-2,0.4
					c-0.6,0.3-1.2,0.6-1.6,1.1c-0.5,0.5-0.8,1-1.1,1.6c-0.6,1.3-0.6,2.7,0,4c0.3,0.6,0.6,1.2,1.1,1.6c1,1,2.3,1.5,3.7,1.5
					c1,0,1.8-0.2,2.6-0.6c0.7-0.4,1.3-0.9,1.8-1.6c0.1-0.1,0.1-0.4,0.1-0.5C92.4,12,92.3,11.9,92.1,11.8 M102.5,13.8l-3-4.5l2.6-3.5
					c0.1-0.1,0.1-0.4,0.1-0.6C102.1,5.1,102,5,101.6,5h-2c-0.1,0-0.2,0-0.4,0.1S99,5.2,99,5.3l-2.1,2.9h-0.5V1.3
					c0-0.1-0.1-0.3-0.1-0.4c-0.1-0.1-0.2-0.1-0.4-0.1H94c-0.1,0-0.3,0.1-0.4,0.1c-0.1,0.1-0.1,0.2-0.1,0.4V14c0,0.1,0.1,0.3,0.1,0.4
					c0.1,0.1,0.2,0.1,0.4,0.1h1.9c0.1,0,0.3-0.1,0.4-0.1c0.1-0.1,0.1-0.2,0.1-0.4v-3.4H97l2.3,3.5c0.1,0.3,0.4,0.4,0.6,0.4h2.2
					c0.4,0,0.5-0.1,0.6-0.3C102.5,14.2,102.5,14,102.5,13.8 M54.3,5h-2.2c-0.1,0-0.4,0.1-0.4,0.1c-0.1,0.1-0.1,0.2-0.2,0.4l-1.6,5.9
					h-0.4l-1.7-5.9c0-0.1-0.1-0.2-0.1-0.4C47.5,5,47.4,5,47.2,5H45c-0.3,0-0.5,0.1-0.6,0.3c-0.1,0.1-0.1,0.4,0,0.6l2.7,8.4
					c0.1,0.1,0.1,0.3,0.2,0.4c0.1,0.1,0.3,0.1,0.4,0.1H49L48.9,15l-0.4,0.8c-0.1,0.2-0.2,0.4-0.4,0.6c-0.2,0.1-0.4,0.2-0.6,0.2
					s-0.4-0.1-0.6-0.1c-0.2-0.1-0.4-0.2-0.5-0.3C46.3,16,46.2,16,46,16l0,0c-0.2,0-0.4,0.1-0.5,0.3l-0.7,1c-0.3,0.4-0.1,0.7,0.1,0.8
					c0.4,0.4,0.8,0.6,1.3,0.8c0.6,0.2,1.1,0.3,1.6,0.3c1,0,1.8-0.3,2.5-0.8c0.6-0.6,1.1-1.3,1.4-2.2l3.2-10.4c0.1-0.2,0.1-0.4,0-0.6
					C54.7,5.2,54.6,5,54.3,5"/>
			</g>
		</g>
	</g>
</g>
</svg>
