<?xml version="1.0" encoding="utf-8"?>
<!-- Generator: Adobe Illustrator 25.2.0, SVG Export Plug-In . SVG Version: 6.00 Build 0)  -->
<svg version="1.1" id="Layer_1" xmlns="http://www.w3.org/2000/svg" xmlns:xlink="http://www.w3.org/1999/xlink" x="0px" y="0px"
	 width="253px" height="65px" viewBox="0 0 253 65" style="enable-background:new 0 0 253 65;" xml:space="preserve">
<style type="text/css">
	.st0{fill:#FFFFFF;}
</style>
<g>
	<path class="st0" d="M36,14.3H2.1c-1.1,0-2.1,1-2.1,2.1v3.8c0,1.2,1,2.1,2.1,2.1H36c1.2,0,2.1-1,2.1-2.1v-3.7
		C38.2,15.3,37.2,14.3,36,14.3L36,14.3z M36,35.6H2.1c-0.6,0-1.1,0.2-1.5,0.6C0.2,36.6,0,37.1,0,37.7v3.8c0,1.2,1,2.1,2.1,2.1H36
		c1.2,0,2.1-0.9,2.1-2.1v-3.8C38.1,36.5,37.2,35.6,36,35.6L36,35.6z M21.2,46.2H2.1c-0.6,0-1.1,0.2-1.5,0.6C0.3,47.2,0,47.7,0,48.3
		v3.8c0,1.2,1,2.1,2.1,2.1h19.1c1.2,0,2.1-1,2.1-2.1v-3.8C23.3,47.1,22.4,46.2,21.2,46.2L21.2,46.2z M38.2,24.9H2.1
		c-0.6,0-1.1,0.2-1.5,0.6S0,26.4,0,27v3.8C0,32,1,33,2.1,33h36c1.2,0,2.1-1,2.1-2.1V27C40.3,25.9,39.3,25,38.2,24.9L38.2,24.9z"/>
	<path class="st0" d="M77.6,22.9c-1-1.1-2.3-1.9-3.7-2.5s-2.8-0.9-4.4-0.9c-1.5-0.1-2.9,0.3-4.2,0.9c-0.9,0.4-1.7,1-2.4,1.7v-0.7
		c0-0.3-0.1-0.7-0.3-0.9c-0.2-0.3-0.6-0.4-0.9-0.4h-4.6c-0.3,0-0.7,0.1-0.9,0.4c-0.3,0.3-0.3,0.6-0.3,0.9V53c0,0.3,0.1,0.7,0.3,0.9
		c0.3,0.3,0.6,0.3,0.9,0.3h4.8c0.3,0,0.6-0.1,0.9-0.3c0.3-0.2,0.4-0.6,0.3-0.9V42.2c0.7,0.8,1.5,1.3,2.5,1.7c1.2,0.5,2.6,0.7,4,0.7
		c1.5,0,3.1-0.3,4.4-0.9c1.4-0.6,2.6-1.5,3.7-2.5c1.1-1.1,1.9-2.5,2.5-4c0.7-1.7,1-3.4,0.9-5.2c0.1-1.8-0.3-3.5-0.9-5.2
		C79.6,25.4,78.7,24,77.6,22.9L77.6,22.9z M73.3,34.3c-0.3,0.7-0.6,1.2-1.1,1.8c-1,1-2.4,1.7-3.8,1.7c-0.7,0-1.5-0.1-2.1-0.5
		c-0.6-0.3-1.2-0.7-1.7-1.2s-0.9-1.1-1.1-1.8c-0.6-1.5-0.6-3,0-4.4c0.3-0.7,0.7-1.2,1.1-1.8c0.5-0.5,1.1-0.9,1.7-1.2
		c0.7-0.3,1.4-0.5,2.1-0.5c0.8,0,1.5,0.1,2.1,0.5c0.6,0.3,1.2,0.7,1.7,1.2s0.8,1.1,1.1,1.8C73.9,31.3,73.8,32.9,73.3,34.3L73.3,34.3
		z M106.9,20.2h-4.8c-0.3,0-0.7,0.1-0.9,0.3c-0.3,0.3-0.3,0.6-0.3,1v0.6c-0.6-0.7-1.3-1.2-2.1-1.7c-1.3-0.6-2.8-0.9-4.2-0.9
		c-3.1,0-6,1.2-8.2,3.4c-1.1,1.1-2,2.5-2.6,4c-0.7,1.7-1,3.4-1,5.2c-0.1,1.8,0.3,3.5,1,5.2c0.6,1.5,1.5,2.8,2.6,4
		c2.1,2.2,5.1,3.4,8.1,3.4c1.5,0.1,2.8-0.3,4.2-0.9c0.8-0.4,1.6-1,2.2-1.7v0.6c0,0.3,0.1,0.7,0.3,0.9c0.3,0.2,0.6,0.3,0.9,0.3h4.8
		c0.3,0,0.7-0.1,0.9-0.3c0.3-0.3,0.3-0.6,0.3-0.9V21.6c0-0.3-0.1-0.7-0.3-0.9C107.5,20.3,107.2,20.2,106.9,20.2L106.9,20.2z
		 M100.4,34.3c-0.3,0.7-0.6,1.2-1.1,1.8c-0.5,0.5-1,0.9-1.7,1.2c-1.3,0.6-2.9,0.6-4.2,0c-0.6-0.3-1.2-0.7-1.7-1.2s-0.9-1.1-1.1-1.8
		c-0.5-1.5-0.5-3,0-4.4c0.3-0.7,0.6-1.2,1.1-1.8c0.5-0.5,1-0.9,1.7-1.2c1.3-0.6,2.9-0.6,4.2,0c0.6,0.3,1.2,0.7,1.7,1.2
		s0.8,1.1,1.1,1.8C100.9,31.3,100.9,32.9,100.4,34.3L100.4,34.3z M154.3,31.4c-0.7-0.6-1.5-1.1-2.3-1.5c-0.9-0.3-1.9-0.6-2.8-0.8
		l-3.6-0.7c-0.9-0.1-1.6-0.4-1.9-0.7c-0.3-0.2-0.5-0.6-0.5-0.9s0.2-0.7,0.7-1c0.6-0.3,1.3-0.5,2-0.5c0.9,0,1.9,0.2,2.7,0.6
		c0.8,0.3,1.7,0.8,2.4,1.2c1,0.7,2,0.6,2.6-0.2l1.7-2c0.3-0.3,0.5-0.8,0.6-1.2c-0.1-0.5-0.3-0.9-0.7-1.2c-0.7-0.6-1.9-1.3-3.5-2
		c-1.5-0.7-3.5-1-5.9-1c-1.5-0.1-2.8,0.1-4.2,0.6c-1.1,0.3-2.2,0.9-3.2,1.7c-0.9,0.7-1.5,1.5-2.1,2.5c-0.5,1-0.7,2-0.7,3.1
		c0,2,0.6,3.6,1.8,4.8s2.8,2,4.6,2.4l3.8,0.8c0.8,0.1,1.7,0.3,2.4,0.8c0.4,0.1,0.7,0.6,0.7,1s-0.2,0.8-0.7,1.1s-1.2,0.6-2.2,0.6
		s-2.1-0.2-3-0.7c-0.9-0.4-1.7-1-2.4-1.6c-0.3-0.3-0.7-0.5-1.1-0.6s-1,0-1.5,0.5l-2.1,1.5c-0.6,0.4-0.9,1.1-0.7,1.8
		c0.1,0.7,0.7,1.4,1.7,2.2c2.6,1.8,5.8,2.7,8.9,2.6c1.5,0,3-0.1,4.4-0.6c1.2-0.3,2.4-0.9,3.4-1.7c0.9-0.7,1.7-1.5,2.2-2.6
		c0.5-1,0.8-2.1,0.8-3.3c0.1-1-0.1-2-0.6-3C155.6,32.7,155,32,154.3,31.4L154.3,31.4z M175.2,37.2c-0.2-0.3-0.6-0.6-1-0.7
		c-0.4,0-0.9,0.1-1.2,0.3c-0.6,0.3-1.2,0.6-1.9,0.6c-0.2,0-0.5-0.1-0.7-0.1c-0.3-0.1-0.5-0.1-0.6-0.3c-0.2-0.2-0.3-0.5-0.5-0.7
		c-0.1-0.4-0.3-0.8-0.2-1.2v-8.7h6.2c0.3,0,0.7-0.1,1-0.4s0.4-0.6,0.4-0.9v-3.7c0-0.3-0.1-0.7-0.4-0.9c-0.3-0.3-0.6-0.3-0.9-0.3H169
		v-6c0-0.3-0.1-0.7-0.3-0.9c-0.3-0.2-0.6-0.3-0.9-0.3H163c-0.3,0-0.7,0.1-0.9,0.3c-0.3,0.3-0.4,0.6-0.4,0.9v5.9h-2.8
		c-0.3,0-0.7,0.1-0.9,0.4s-0.3,0.6-0.3,0.9v3.7c0,0.3,0.1,0.7,0.3,0.9c0.2,0.3,0.6,0.4,0.9,0.4h2.8v10.3c-0.1,1.2,0.2,2.4,0.7,3.5
		c0.5,0.9,1,1.7,1.9,2.4c0.8,0.6,1.7,1.1,2.6,1.3c1,0.3,2,0.5,3,0.5c1.3,0,2.6-0.2,4-0.6c1.2-0.3,2.2-1,3.1-1.9
		c0.6-0.6,0.6-1.5,0.1-2.1L175.2,37.2z M201.2,20.2h-4.8c-0.3,0-0.6,0.1-0.9,0.3c-0.3,0.3-0.3,0.6-0.3,1v0.6
		c-0.6-0.7-1.3-1.2-2.1-1.7c-1.3-0.6-2.8-0.9-4.2-0.9c-3.1,0-6,1.2-8.2,3.4c-1.1,1.1-2,2.5-2.6,4c-0.7,1.7-1,3.4-1,5.2
		c-0.1,1.8,0.3,3.5,1,5.2c0.6,1.5,1.5,2.8,2.6,4c2.1,2.2,5.1,3.4,8.1,3.4c1.5,0.1,2.8-0.3,4.2-0.9c0.8-0.4,1.6-1,2.2-1.7v0.6
		c0,0.3,0.1,0.7,0.3,0.9c0.3,0.3,0.6,0.3,0.9,0.3h4.8c0.7,0,1.2-0.6,1.2-1.2V21.6c0-0.3-0.1-0.7-0.3-0.9
		C201.9,20.3,201.6,20.2,201.2,20.2L201.2,20.2z M194.8,34.3c-0.3,0.7-0.6,1.2-1.1,1.8c-0.5,0.5-1,0.9-1.7,1.2s-1.4,0.5-2.1,0.5
		c-0.8,0-1.5-0.1-2.1-0.5c-0.6-0.3-1.2-0.7-1.7-1.2s-0.9-1.1-1.1-1.8c-0.5-1.5-0.5-3,0-4.4c0.3-0.7,0.6-1.2,1.1-1.8
		c0.5-0.5,1.1-0.9,1.7-1.2c0.7-0.3,1.4-0.5,2.1-0.5s1.5,0.1,2.1,0.5c0.6,0.3,1.2,0.7,1.7,1.2s0.9,1.1,1.1,1.8
		C195.4,31.3,195.4,32.9,194.8,34.3L194.8,34.3z M227.3,36.9l-2.8-2.1c-0.5-0.4-1-0.6-1.5-0.3c-0.3,0.1-0.7,0.4-1,0.7
		c-0.6,0.7-1.3,1.3-2.1,1.9c-0.8,0.5-1.7,0.7-2.6,0.6c-1.1,0-2.1-0.3-3-0.9c-0.9-0.6-1.5-1.5-1.9-2.5c-0.3-0.7-0.3-1.5-0.3-2.1
		c0-0.8,0.1-1.5,0.3-2.2c0.3-0.7,0.6-1.2,1.1-1.8c0.5-0.5,1-0.9,1.7-1.2c0.7-0.3,1.4-0.5,2.1-0.5c0.9-0.1,1.9,0.2,2.6,0.7
		c0.8,0.5,1.5,1.1,2.1,1.9c0.3,0.3,0.6,0.6,1,0.7s0.9,0.1,1.5-0.3l2.8-2.1c0.3-0.2,0.6-0.6,0.7-0.9c0.1-0.4,0.1-0.9-0.1-1.2
		c-1-1.7-2.5-3-4.2-4c-1.8-1-4-1.5-6.4-1.5c-1.7,0-3.4,0.3-5,1c-1.5,0.6-2.8,1.5-4,2.6s-2.1,2.5-2.7,4c-1.3,3.2-1.3,6.7,0,9.8
		c0.6,1.5,1.5,2.8,2.7,4c2.4,2.4,5.6,3.6,9,3.6c2.4,0,4.6-0.6,6.4-1.5c1.7-1,3.2-2.3,4.2-4c0.2-0.3,0.3-0.8,0.1-1.2
		C227.9,37.4,227.7,37.2,227.3,36.9L227.3,36.9z M252.7,41.8l-7.5-11l6.4-8.5c0.3-0.3,0.4-0.9,0.3-1.4c-0.1-0.3-0.4-0.7-1.2-0.7
		h-5.1c-0.3,0-0.6,0.1-0.8,0.2c-0.3,0.1-0.6,0.4-0.8,0.7l-5.1,7.2h-1.2v-17c0-0.3-0.1-0.7-0.3-0.9c-0.3-0.3-0.6-0.3-0.9-0.3h-4.8
		c-0.3,0-0.7,0.1-0.9,0.3c-0.3,0.3-0.3,0.6-0.3,0.9v31.4c0,0.3,0.1,0.7,0.3,0.9s0.6,0.3,0.9,0.3h4.8c0.3,0,0.7-0.1,0.9-0.3
		c0.3-0.3,0.3-0.6,0.3-0.9v-8.3h1.3l5.6,8.6c0.3,0.6,1,1,1.7,1h5.3c0.8,0,1.1-0.3,1.3-0.7C253,42.8,253,42.2,252.7,41.8L252.7,41.8z
		 M133.9,20.2h-5.3c-0.4,0-0.8,0.1-1.1,0.4c-0.3,0.3-0.4,0.6-0.5,0.9l-4,14.7h-1l-4.2-14.7c-0.1-0.3-0.2-0.6-0.4-0.9
		c-0.3-0.3-0.6-0.5-1-0.5H111c-0.7,0-1.1,0.2-1.3,0.7c-0.1,0.4-0.1,0.9,0,1.3l6.7,20.7c0.1,0.3,0.3,0.6,0.5,0.8
		c0.3,0.3,0.6,0.3,1,0.3h2.8l-0.3,0.7l-0.6,1.9c-0.2,0.6-0.6,1.1-1,1.5c-0.5,0.3-1,0.6-1.6,0.5c-0.5,0-1-0.1-1.5-0.3
		s-0.9-0.5-1.2-0.8c-0.3-0.3-0.8-0.3-1.2-0.3h-0.1c-0.5,0.1-1,0.3-1.2,0.8l-1.7,2.5c-0.7,1.1-0.3,1.8,0.1,2.1c0.9,0.8,2,1.5,3.2,1.9
		c1.3,0.5,2.6,0.7,4,0.7c2.4,0,4.4-0.7,6-2c1.6-1.5,2.8-3.3,3.4-5.4l7.8-25.5c0.1-0.5,0.2-0.9,0.1-1.3
		C135,20.5,134.6,20.2,133.9,20.2L133.9,20.2z"/>
</g>
</svg>
